<svg  viewBox="0 0 2400 800" opacity="1"><g fill="hsla(0, 0%, 10%, 1.00)" transform="matrix(1,0,0,1,2.0377197265625,315.1343002319336)"><path d="M-10,10C117.08333333333334,24.791666666666668,347.9166666666667,87.04166666666667,600,81C852.0833333333333,74.95833333333333,950,-10.041666666666666,1200,-19C1450,-27.958333333333336,1550,47.791666666666664,1800,38C2050,28.208333333333336,2222.9166666666665,-141.41666666666669,2400,-66C2577.0833333333335,9.416666666666671,3254.1666666666665,198.75,2650,400C2045.8333333333335,601.25,156.25,795.8333333333334,-500,900" transform="matrix(1,0,0,1,0,31)" opacity="0.05"></path><path d="M-10,10C117.08333333333334,24.791666666666668,347.9166666666667,87.04166666666667,600,81C852.0833333333333,74.95833333333333,950,-10.041666666666666,1200,-19C1450,-27.958333333333336,1550,47.791666666666664,1800,38C2050,28.208333333333336,2222.9166666666665,-141.41666666666669,2400,-66C2577.0833333333335,9.416666666666671,3254.1666666666665,198.75,2650,400C2045.8333333333335,601.25,156.25,795.8333333333334,-500,900" transform="matrix(1,0,0,1,0,62)" opacity="0.37"></path><path d="M-10,10C117.08333333333334,24.791666666666668,347.9166666666667,87.04166666666667,600,81C852.0833333333333,74.95833333333333,950,-10.041666666666666,1200,-19C1450,-27.958333333333336,1550,47.791666666666664,1800,38C2050,28.208333333333336,2222.9166666666665,-141.41666666666669,2400,-66C2577.0833333333335,9.416666666666671,3254.1666666666665,198.75,2650,400C2045.8333333333335,601.25,156.25,795.8333333333334,-500,900" transform="matrix(1,0,0,1,0,93)" opacity="0.68"></path><path d="M-10,10C117.08333333333334,24.791666666666668,347.9166666666667,87.04166666666667,600,81C852.0833333333333,74.95833333333333,950,-10.041666666666666,1200,-19C1450,-27.958333333333336,1550,47.791666666666664,1800,38C2050,28.208333333333336,2222.9166666666665,-141.41666666666669,2400,-66C2577.0833333333335,9.416666666666671,3254.1666666666665,198.75,2650,400C2045.8333333333335,601.25,156.25,795.8333333333334,-500,900" transform="matrix(1,0,0,1,0,124)" opacity="1.00"></path></g></svg>
